<svg xmlns="http://www.w3.org/2000/svg" xmlns:xlink="http://www.w3.org/1999/xlink" width="80" height="80" viewBox="0 0 80 80">
  <defs>
    <style>
      .cls-1 {
        fill: url(#linear-gradient);
      }

      .cls-2 {
        fill: #fff;
      }
    </style>
    <linearGradient id="linear-gradient" x1="1" y1="0.515" x2="0" y2="0.532" gradientUnits="objectBoundingBox">
      <stop offset="0" stop-color="#00a8ff"/>
      <stop offset="1" stop-color="#285fdd"/>
    </linearGradient>
  </defs>
  <g id="Group_2507" data-name="Group 2507" transform="translate(-1279 -4547.881)">
    <circle id="Ellipse_4" data-name="Ellipse 4" class="cls-1" cx="40" cy="40" r="40" transform="translate(1279 4547.881)"/>
    <path id="phone" class="cls-2" d="M37.024,24.039a6.316,6.316,0,0,1-1.345-.241,18.947,18.947,0,0,1-2.629-.783,4.014,4.014,0,0,0-4.978,2.007l-.442.9a24.448,24.448,0,0,1-5.339-4.014,24.448,24.448,0,0,1-4.014-5.339l.843-.562a4.014,4.014,0,0,0,2.007-4.978A20.735,20.735,0,0,1,20.344,8.4c-.1-.442-.181-.9-.241-1.365a6.022,6.022,0,0,0-6.022-5H8.06A6.022,6.022,0,0,0,2.038,8.885,38.137,38.137,0,0,0,35.2,41.923h.763a6.007,6.007,0,0,0,6.022-6.042V29.86A6.022,6.022,0,0,0,37.024,24.039Zm1,12.043a2.007,2.007,0,0,1-.682,1.505,2.108,2.108,0,0,1-1.646.5A34.122,34.122,0,0,1,6.173,8.423a2.188,2.188,0,0,1,.5-1.646A2.007,2.007,0,0,1,8.18,6.095H14.2a2.007,2.007,0,0,1,2.007,1.586q.12.823.3,1.626a22.321,22.321,0,0,0,.923,3.111l-2.81,1.3a2.007,2.007,0,0,0-.984,2.67,29.084,29.084,0,0,0,14.05,14.05A2.127,2.127,0,0,0,30.36,29.4l1.244-2.81a27.479,27.479,0,0,0,3.171.923q.8.181,1.626.3a2.007,2.007,0,0,1,1.586,2.007Z" transform="translate(1297.018 4565.84)"/>
  </g>
</svg>
